<?xml version="1.0" encoding="utf-8"?>
<!-- Generator: Adobe Illustrator 25.2.0, SVG Export Plug-In . SVG Version: 6.00 Build 0)  -->
<svg version="1.1" id="Layer_1" xmlns="http://www.w3.org/2000/svg" xmlns:xlink="http://www.w3.org/1999/xlink" x="0px" y="0px"
	 viewBox="0 0 357 91.939" style="enable-background:new 0 0 357 91.939;" xml:space="preserve">
<style type="text/css">
	.st0{fill-rule:evenodd;clip-rule:evenodd;fill:#FBFBFB;}
	.st1{fill-rule:evenodd;clip-rule:evenodd;fill:#F8F8F9;}
	.st2{fill-rule:evenodd;clip-rule:evenodd;fill:#F6F6F6;}
	.st3{fill-rule:evenodd;clip-rule:evenodd;fill:#F3F4F4;}
	.st4{fill-rule:evenodd;clip-rule:evenodd;fill:#F1F2F2;}
	.st5{fill-rule:evenodd;clip-rule:evenodd;fill:#EFEFF0;}
	.st6{fill-rule:evenodd;clip-rule:evenodd;fill:#EDEDEE;}
	.st7{fill-rule:evenodd;clip-rule:evenodd;fill:#EBEBEC;}
	.st8{fill-rule:evenodd;clip-rule:evenodd;fill:#E9E9EA;}
	.st9{fill-rule:evenodd;clip-rule:evenodd;fill:#E6E7E8;}
	.st10{fill:#FFFFFF;}
	.st11{fill:url(#SVGID_1_);}
	.st12{fill:#5A5A5A;}
	.st13{fill-rule:evenodd;clip-rule:evenodd;fill:#00A651;}
	.st14{fill-rule:evenodd;clip-rule:evenodd;fill:#A6CE39;}
	.st15{fill-rule:evenodd;clip-rule:evenodd;fill:url(#SVGID_2_);}
	.st16{fill-rule:evenodd;clip-rule:evenodd;fill:url(#SVGID_3_);}
</style>
<g>
	<g>
		<path class="st0" d="M34.687,84.902C15.533,84.902,0,86.478,0,88.42s15.533,3.519,34.687,3.519s34.687-1.576,34.687-3.519
			S53.842,84.902,34.687,84.902z"/>
		<g>
			<path class="st1" d="M34.687,85.026c-18.517,0-33.532,1.52-33.532,3.394c0,1.875,15.016,3.395,33.532,3.395
				s33.533-1.52,33.533-3.395C68.22,86.546,53.204,85.026,34.687,85.026z"/>
			<path class="st1" d="M34.687,85.15c-17.879,0-32.378,1.464-32.378,3.27c0,1.805,14.499,3.271,32.378,3.271
				s32.378-1.465,32.378-3.271C67.066,86.615,52.567,85.15,34.687,85.15z"/>
			<path class="st2" d="M34.687,85.274c-17.242,0-31.224,1.409-31.224,3.146c0,1.738,13.982,3.146,31.224,3.146
				s31.224-1.409,31.224-3.146C65.911,86.683,51.929,85.274,34.687,85.274z"/>
			<path class="st2" d="M34.687,85.399c-16.604,0-30.069,1.353-30.069,3.021s13.465,3.022,30.069,3.022s30.07-1.354,30.07-3.022
				S51.292,85.399,34.687,85.399z"/>
			<path class="st3" d="M34.687,85.523c-15.967,0-28.915,1.298-28.915,2.897c0,1.601,12.949,2.898,28.915,2.898
				c15.967,0,28.915-1.298,28.915-2.898C63.603,86.82,50.654,85.523,34.687,85.523z"/>
			<path class="st3" d="M34.687,85.647c-15.329,0-27.761,1.242-27.761,2.773c0,1.531,12.432,2.774,27.761,2.774
				c15.329,0,27.761-1.243,27.761-2.774C62.448,86.889,50.017,85.647,34.687,85.647z"/>
			<ellipse class="st3" cx="34.687" cy="88.42" rx="26.606" ry="2.65"/>
			<path class="st4" d="M34.687,85.895c-14.054,0-25.452,1.131-25.452,2.525c0,1.394,11.398,2.526,25.452,2.526
				c14.054,0,25.452-1.132,25.452-2.526C60.14,87.026,48.742,85.895,34.687,85.895z"/>
			<path class="st4" d="M34.687,86.018c-13.417,0-24.297,1.076-24.297,2.402c0,1.327,10.881,2.402,24.297,2.402
				c13.417,0,24.298-1.075,24.298-2.402C58.985,87.094,48.104,86.018,34.687,86.018z"/>
			<path class="st4" d="M34.687,86.143c-12.779,0-23.143,1.02-23.143,2.277c0,1.257,10.363,2.278,23.143,2.278
				s23.143-1.02,23.143-2.278C57.831,87.163,47.467,86.143,34.687,86.143z"/>
			<ellipse class="st5" cx="34.687" cy="88.42" rx="21.989" ry="2.154"/>
			<path class="st6" d="M34.687,86.391c-11.504,0-20.834,0.908-20.834,2.029c0,1.12,9.33,2.029,20.834,2.029
				s20.834-0.909,20.834-2.029C55.522,87.3,46.192,86.391,34.687,86.391z"/>
			<path class="st6" d="M34.687,86.515c-10.867,0-19.68,0.854-19.68,1.905c0,1.053,8.813,1.905,19.68,1.905s19.68-0.853,19.68-1.905
				C54.367,87.368,45.554,86.515,34.687,86.515z"/>
			<path class="st6" d="M34.687,86.639c-10.229,0-18.525,0.798-18.525,1.781s8.296,1.781,18.525,1.781s18.525-0.798,18.525-1.781
				S44.917,86.639,34.687,86.639z"/>
			<path class="st7" d="M34.687,86.763c-9.592,0-17.371,0.742-17.371,1.657s7.779,1.657,17.371,1.657s17.371-0.742,17.371-1.657
				S44.279,86.763,34.687,86.763z"/>
			<path class="st7" d="M34.687,86.887c-8.954,0-16.216,0.687-16.216,1.533c0,0.846,7.262,1.533,16.216,1.533
				s16.216-0.687,16.216-1.533C50.904,87.574,43.642,86.887,34.687,86.887z"/>
			<ellipse class="st8" cx="34.687" cy="88.42" rx="15.062" ry="1.409"/>
			<path class="st8" d="M34.687,87.135c-7.679,0-13.907,0.575-13.907,1.285s6.228,1.285,13.907,1.285
				c7.68,0,13.908-0.575,13.908-1.285S42.367,87.135,34.687,87.135z"/>
			<path class="st8" d="M34.687,87.26c-7.042,0-12.753,0.521-12.753,1.161c0,0.641,5.711,1.161,12.753,1.161
				c7.042,0,12.753-0.52,12.753-1.161C47.441,87.78,41.73,87.26,34.687,87.26z"/>
			<ellipse class="st9" cx="34.687" cy="88.42" rx="11.599" ry="1.036"/>
		</g>
		<ellipse class="st9" cx="34.687" cy="88.42" rx="10.444" ry="0.912"/>
	</g>
	<g>
		<path class="st10" d="M58.181,42.202h-45.51l-3.736-3.497h49.042l0.364-0.012c0.306-0.865,0.803-1.641,1.439-2.278l-0.003-0.003
			c1.1-1.099,2.62-1.781,4.298-1.781c1.671,0,3.189,0.68,4.292,1.781l0.003,0.003l0.003,0.003c1.101,1.103,1.781,2.621,1.781,4.291
			c0,1.678-0.681,3.198-1.781,4.299l-0.003-0.003c-1.103,1.102-2.622,1.784-4.294,1.784c-1.678,0-3.198-0.681-4.298-1.78
			C59.014,44.245,58.454,43.281,58.181,42.202L58.181,42.202z M66.056,42.692c0.507-0.507,0.821-1.208,0.821-1.983
			c0-0.778-0.312-1.479-0.815-1.982l-0.006-0.006c-0.503-0.504-1.204-0.816-1.982-0.816c-0.774,0-1.475,0.314-1.982,0.821h-0.007
			c-0.503,0.503-0.815,1.204-0.815,1.982c0,0.775,0.314,1.476,0.821,1.983c0.507,0.508,1.208,0.821,1.982,0.821
			c0.778,0,1.479-0.312,1.982-0.815V42.692z"/>
		<path class="st10" d="M70.188,27.466h-6.466l-6.533,6.784l-0.521,0.541h-0.74h-1.455v0.01H8.823l0.882-2.647l1.246-0.84h43.435
			l0.801-0.033l6.533-6.784l0.521-0.542h0.74h7.192c0.293-0.978,0.826-1.855,1.532-2.562l-0.003-0.003c1.1-1.1,2.62-1.78,4.298-1.78
			c1.671,0,3.189,0.68,4.291,1.78l0.003,0.003l0.003,0.003c1.101,1.103,1.781,2.62,1.781,4.292c0,1.677-0.681,3.198-1.781,4.297
			l-0.003-0.003c-1.103,1.103-2.622,1.784-4.294,1.784c-1.678,0-3.198-0.681-4.298-1.781l0.003-0.003
			C71.011,29.288,70.483,28.426,70.188,27.466L70.188,27.466z M77.983,27.671c0.507-0.507,0.821-1.208,0.821-1.982
			c0-0.779-0.312-1.48-0.814-1.983L77.983,23.7c-0.503-0.503-1.204-0.815-1.982-0.815c-0.774,0-1.475,0.314-1.982,0.821h-0.006
			c-0.503,0.503-0.815,1.204-0.815,1.983c0,0.778,0.312,1.479,0.815,1.982h0.006c0.507,0.507,1.208,0.821,1.982,0.821
			c0.778,0,1.479-0.311,1.982-0.815V27.671z"/>
		<path class="st10" d="M56.972,20.443l-5.307,5.509l-0.521,0.542h-0.74H18.106l5.182-3.492h26.095l0.282-0.017l4.807-4.991
			c-0.483-0.871-0.758-1.871-0.758-2.933c0-1.672,0.682-3.192,1.784-4.294l-0.004-0.003c1.1-1.101,2.62-1.781,4.298-1.781
			c1.671,0,3.189,0.68,4.291,1.781l0.003,0.003l0.003,0.003c1.101,1.103,1.781,2.62,1.781,4.291c0,1.678-0.681,3.198-1.781,4.298
			l-0.003-0.004c-1.103,1.103-2.622,1.784-4.294,1.784C58.777,21.139,57.817,20.888,56.972,20.443L56.972,20.443z M61.776,17.043
			c0.507-0.508,0.821-1.209,0.821-1.983c0-0.779-0.312-1.48-0.815-1.983l-0.006-0.006c-0.503-0.504-1.204-0.815-1.982-0.815
			c-0.774,0-1.475,0.314-1.982,0.82h-0.006c-0.503,0.503-0.815,1.204-0.815,1.983c0,0.778,0.312,1.48,0.815,1.983l0.006,0.006
			c0.503,0.503,1.204,0.814,1.982,0.814c0.778,0,1.479-0.311,1.982-0.814V17.043z"/>
		<path class="st10" d="M70.188,53.672h-6.466l-6.533-6.784l-0.521-0.542h-0.74l-0.697,0.034v-0.002H17.133l3.724,3.486h34.338
			l6.525,6.776l0.521,0.541h0.74h7.192c0.293,0.979,0.826,1.856,1.532,2.562l-0.003,0.004c1.1,1.1,2.62,1.78,4.298,1.78
			c1.671,0,3.189-0.68,4.291-1.78l0.003-0.004l0.003-0.002c1.101-1.103,1.781-2.621,1.781-4.292c0-1.678-0.681-3.198-1.781-4.297
			l-0.003,0.003c-1.103-1.103-2.622-1.784-4.294-1.784c-1.678,0-3.198,0.68-4.298,1.781l0.003,0.003
			C71.011,51.849,70.483,52.711,70.188,53.672L70.188,53.672z M77.983,53.466c0.507,0.508,0.821,1.209,0.821,1.983
			c0,0.779-0.312,1.48-0.814,1.983l-0.007,0.006c-0.503,0.503-1.204,0.814-1.982,0.814c-0.774,0-1.475-0.314-1.982-0.82h-0.006
			c-0.503-0.503-0.815-1.204-0.815-1.983c0-0.778,0.312-1.48,0.815-1.983h0.006c0.507-0.507,1.208-0.82,1.982-0.82
			c0.778,0,1.479,0.311,1.982,0.814V53.466z"/>
		<path class="st10" d="M56.972,60.696l-5.307-5.51l-0.521-0.541h-0.74l-0.743,0.047H26.015l3.725,3.487h19.948l4.784,4.967
			c-0.483,0.871-0.758,1.871-0.758,2.933c0,1.672,0.682,3.192,1.784,4.294l-0.004,0.003c1.1,1.1,2.62,1.781,4.298,1.781
			c1.671,0,3.189-0.68,4.291-1.781l0.003-0.003l0.003-0.003c1.101-1.103,1.781-2.621,1.781-4.291c0-1.678-0.681-3.198-1.781-4.298
			l-0.003,0.003c-1.103-1.102-2.622-1.784-4.294-1.784C58.777,59.999,57.817,60.251,56.972,60.696L56.972,60.696z M61.776,64.095
			c0.507,0.508,0.821,1.208,0.821,1.983c0,0.778-0.312,1.479-0.815,1.982l-0.006,0.006c-0.503,0.504-1.204,0.815-1.982,0.815
			c-0.774,0-1.475-0.314-1.982-0.821h-0.006c-0.503-0.503-0.815-1.204-0.815-1.982c0-0.778,0.312-1.48,0.815-1.983l0.006-0.006
			c0.503-0.503,1.204-0.815,1.982-0.815c0.778,0,1.479,0.312,1.982,0.815V64.095z"/>
	</g>
	<radialGradient id="SVGID_1_" cx="151.8498" cy="21.2661" r="56.5504" gradientUnits="userSpaceOnUse">
		<stop  offset="0" style="stop-color:#D2E288"/>
		<stop  offset="0.61" style="stop-color:#A6CE39"/>
		<stop  offset="1" style="stop-color:#A6CE39"/>
	</radialGradient>
	<path class="st11" d="M134.597,51.617v-0.742c-0.007-1.638-0.386-3.014-1.121-4.121c-0.735-1.115-1.776-1.951-3.116-2.519
		c0.888-0.387,1.631-0.911,2.228-1.573c0.597-0.663,1.041-1.427,1.34-2.286c0.299-0.859,0.451-1.77,0.451-2.738v-0.874
		c-0.007-1.646-0.335-3.036-0.99-4.172c-0.655-1.128-1.572-2.045-2.774-2.737c-1.194-0.692-2.614-1.186-4.252-1.501
		c-1.638-0.313-3.451-0.465-5.438-0.458c-1.143,0-2.191,0.029-3.152,0.073c-0.961,0.052-1.798,0.11-2.504,0.175
		c-0.706,0.065-1.252,0.131-1.638,0.189c-0.466,0.065-0.845,0.189-1.129,0.356c-0.291,0.175-0.502,0.422-0.641,0.743
		c-0.131,0.321-0.196,0.743-0.196,1.259v27.521c0,0.532,0.073,0.954,0.226,1.275c0.146,0.313,0.378,0.553,0.684,0.713
		c0.313,0.167,0.706,0.291,1.187,0.372c0.684,0.131,1.674,0.247,2.963,0.334c1.282,0.094,2.818,0.139,4.594,0.146
		c2.039,0.007,3.873-0.16,5.504-0.495c1.631-0.342,3.022-0.882,4.186-1.617c1.157-0.743,2.039-1.718,2.657-2.919
		C134.284,54.814,134.59,53.35,134.597,51.617L134.597,51.617z M128.481,37.726c0.015,0.75-0.139,1.442-0.445,2.068
		c-0.305,0.626-0.844,1.121-1.601,1.5s-1.813,0.575-3.152,0.582h-5.548v-8.867c0.466-0.023,0.983-0.044,1.544-0.059
		c0.561-0.022,1.114-0.029,1.645-0.029c1.856-0.007,3.335,0.131,4.441,0.408c1.114,0.276,1.915,0.721,2.403,1.339
		c0.488,0.619,0.721,1.434,0.714,2.446V37.726L128.481,37.726z M128.656,51.53c0.007,0.764-0.117,1.427-0.357,1.995
		c-0.247,0.56-0.655,1.034-1.216,1.398c-0.56,0.371-1.318,0.648-2.257,0.83c-0.947,0.189-2.119,0.276-3.509,0.276
		c-0.313,0-0.684-0.007-1.106-0.021c-0.422-0.015-0.845-0.029-1.282-0.044c-0.436-0.014-0.837-0.023-1.194-0.023v-9.61h5.548
		c1.019,0.007,1.878,0.131,2.57,0.385c0.692,0.255,1.245,0.598,1.66,1.027c0.407,0.437,0.699,0.932,0.881,1.478
		c0.182,0.553,0.27,1.136,0.262,1.74V51.53L128.656,51.53z M156.845,49.303v-2.447c0-1.63-0.226-3.13-0.677-4.477
		c-0.451-1.354-1.114-2.527-1.995-3.509c-0.88-0.991-1.973-1.755-3.262-2.294c-1.289-0.538-2.781-0.808-4.463-0.816
		c-2.235,0.007-4.128,0.466-5.686,1.362c-1.558,0.895-2.752,2.176-3.567,3.829c-0.816,1.653-1.223,3.618-1.231,5.904v3.233
		c0.015,1.717,0.241,3.196,0.677,4.441c0.445,1.252,1.041,2.294,1.784,3.137c0.75,0.837,1.58,1.507,2.505,2.003
		c0.917,0.495,1.864,0.851,2.832,1.07c0.961,0.211,1.893,0.32,2.774,0.313c0.976,0,1.835-0.014,2.585-0.043
		c0.75-0.029,1.434-0.073,2.06-0.131c0.633-0.058,1.252-0.138,1.864-0.233c0.612-0.095,1.267-0.204,1.966-0.335
		c0.386-0.058,0.633-0.182,0.757-0.356c0.116-0.175,0.175-0.437,0.16-0.779v-2.883c-0.007-0.218-0.08-0.379-0.226-0.488
		c-0.153-0.109-0.335-0.167-0.561-0.167c-0.044,0-0.088,0-0.131,0c-0.619,0.058-1.347,0.123-2.191,0.189
		c-0.845,0.065-1.762,0.124-2.752,0.174c-0.991,0.043-2.024,0.073-3.094,0.073c-1.041-0.007-1.908-0.182-2.585-0.51
		c-0.685-0.334-1.223-0.771-1.609-1.317c-0.386-0.539-0.662-1.136-0.823-1.784c-0.153-0.648-0.233-1.296-0.226-1.936v-0.132h14.241
		c0.306,0,0.524-0.094,0.67-0.284C156.779,49.922,156.845,49.652,156.845,49.303L156.845,49.303z M151.034,46.288h-9.261v-0.175
		c0.007-1.151,0.211-2.126,0.611-2.927c0.401-0.801,0.947-1.405,1.646-1.82c0.699-0.415,1.507-0.626,2.417-0.626
		c0.91,0,1.711,0.211,2.395,0.633c0.685,0.422,1.223,1.034,1.602,1.835c0.386,0.793,0.582,1.768,0.59,2.905V46.288L151.034,46.288z
		 M171.491,59.917v-2.708c0-0.218-0.087-0.379-0.247-0.488c-0.16-0.108-0.386-0.167-0.67-0.167h-3.451
		c-0.626,0.007-1.136-0.043-1.529-0.146c-0.393-0.102-0.677-0.298-0.859-0.596c-0.189-0.299-0.276-0.735-0.276-1.31v-14.11h6.159
		c0.248-0.008,0.451-0.095,0.619-0.256c0.16-0.167,0.247-0.371,0.255-0.618V36.94c-0.007-0.248-0.094-0.451-0.255-0.619
		c-0.168-0.16-0.371-0.248-0.619-0.255h-6.159v-4.281c-0.007-0.226-0.08-0.43-0.226-0.604c-0.138-0.168-0.313-0.263-0.517-0.269
		c-0.044,0-0.087,0-0.131,0l-4.062,0.699c-0.247,0.043-0.451,0.138-0.619,0.291c-0.16,0.146-0.247,0.342-0.255,0.583v22.017
		c0,1.259,0.16,2.315,0.473,3.159c0.306,0.845,0.764,1.522,1.354,2.017c0.597,0.496,1.318,0.853,2.17,1.064
		c0.852,0.211,1.82,0.32,2.905,0.313c0.619,0,1.259-0.023,1.907-0.052c0.648-0.035,1.26-0.079,1.82-0.131
		c0.561-0.051,1.027-0.11,1.383-0.168c0.284-0.043,0.495-0.131,0.626-0.262C171.426,60.31,171.491,60.136,171.491,59.917
		L171.491,59.917z M192.035,58.738V38.076c0.007-0.218-0.023-0.393-0.081-0.539c-0.058-0.145-0.174-0.262-0.349-0.364
		c-0.168-0.102-0.422-0.189-0.75-0.276c-0.91-0.234-1.863-0.437-2.861-0.604c-0.99-0.168-1.995-0.299-3-0.393
		c-1.004-0.095-1.98-0.139-2.919-0.139c-2.344,0.007-4.288,0.451-5.832,1.325c-1.543,0.882-2.701,2.133-3.466,3.764
		c-0.764,1.639-1.143,3.597-1.143,5.876v3.364c0,2.278,0.379,4.236,1.143,5.867c0.764,1.638,1.922,2.891,3.466,3.772
		c1.543,0.874,3.487,1.318,5.832,1.325c0.939,0,1.915-0.052,2.919-0.139c1.005-0.094,2.01-0.226,3-0.393
		c0.998-0.168,1.951-0.371,2.861-0.604c0.328-0.087,0.583-0.174,0.75-0.276c0.175-0.102,0.291-0.219,0.349-0.364
		C192.013,59.131,192.043,58.956,192.035,58.738L192.035,58.738z M186.269,56.029c-0.284,0.059-0.655,0.11-1.107,0.161
		c-0.451,0.043-0.946,0.08-1.485,0.102c-0.539,0.029-1.07,0.044-1.601,0.044c-1.238-0.007-2.199-0.284-2.884-0.823
		c-0.677-0.539-1.15-1.274-1.412-2.213c-0.262-0.932-0.393-2.009-0.379-3.21v-3.364c-0.015-1.209,0.116-2.279,0.379-3.211
		c0.262-0.939,0.735-1.675,1.412-2.213c0.685-0.539,1.646-0.816,2.884-0.823c0.531,0,1.062,0.015,1.601,0.036
		c0.539,0.029,1.034,0.065,1.485,0.109c0.451,0.052,0.823,0.102,1.107,0.16V56.029z"/>
	<path class="st12" d="M217.809,51.924c0.007-0.859-0.087-1.689-0.269-2.476c-0.189-0.786-0.509-1.543-0.961-2.278
		c-0.459-0.728-1.078-1.435-1.864-2.126c-0.787-0.692-1.784-1.368-2.978-2.031l-5.242-2.927c-0.94-0.517-1.667-0.983-2.191-1.391
		c-0.525-0.408-0.888-0.808-1.092-1.201c-0.211-0.393-0.306-0.823-0.298-1.296c-0.014-0.99,0.349-1.755,1.077-2.286
		c0.736-0.539,1.908-0.808,3.509-0.816c1.42,0,2.847,0.043,4.289,0.116c1.434,0.081,2.876,0.189,4.317,0.321
		c0.023,0,0.037,0,0.044,0c0.008,0,0.023,0,0.044,0c0.226-0.007,0.401-0.081,0.539-0.234c0.131-0.145,0.204-0.327,0.204-0.553
		v-3.232c-0.007-0.219-0.081-0.401-0.226-0.546c-0.153-0.146-0.335-0.24-0.561-0.284c-0.378-0.088-0.888-0.182-1.528-0.27
		c-0.642-0.094-1.355-0.175-2.141-0.255c-0.787-0.08-1.588-0.138-2.403-0.189c-0.808-0.051-1.586-0.073-2.315-0.073
		c-2.025,0.007-3.735,0.211-5.133,0.619c-1.398,0.408-2.527,0.983-3.371,1.725c-0.851,0.743-1.47,1.624-1.849,2.629
		c-0.386,1.012-0.575,2.118-0.567,3.327c-0.015,1.019,0.131,1.981,0.437,2.898c0.298,0.917,0.822,1.791,1.572,2.635
		c0.758,0.845,1.806,1.66,3.146,2.461l5.767,3.451c0.953,0.561,1.704,1.056,2.242,1.485c0.547,0.437,0.925,0.874,1.151,1.31
		c0.218,0.43,0.327,0.925,0.32,1.486c0.007,0.845-0.138,1.558-0.451,2.147c-0.305,0.583-0.83,1.027-1.572,1.325
		c-0.743,0.306-1.755,0.459-3.043,0.459c-0.328,0-0.75-0.007-1.26-0.022c-0.502-0.022-1.056-0.044-1.66-0.065
		c-0.597-0.029-1.194-0.066-1.798-0.102c-0.604-0.036-1.172-0.073-1.696-0.117c-0.525-0.043-0.962-0.087-1.318-0.131
		c-0.023,0-0.037,0-0.044,0c-0.008,0-0.023,0-0.044,0c-0.226,0.007-0.416,0.08-0.575,0.233c-0.16,0.152-0.248,0.349-0.255,0.597
		v3.145c0.006,0.24,0.094,0.437,0.255,0.583c0.16,0.152,0.35,0.247,0.575,0.291c0.692,0.16,1.434,0.298,2.205,0.416
		c0.78,0.116,1.624,0.21,2.534,0.276c0.903,0.058,1.908,0.095,2.992,0.095c1.74-0.007,3.262-0.182,4.55-0.524
		c1.289-0.35,2.381-0.816,3.269-1.42c0.889-0.597,1.601-1.289,2.141-2.068c0.539-0.778,0.932-1.601,1.173-2.475
		C217.693,53.693,217.817,52.812,217.809,51.924L217.809,51.924z M239.839,50.176v-3.538c0-1.573-0.226-3.015-0.671-4.34
		c-0.437-1.318-1.099-2.468-1.979-3.443c-0.874-0.976-1.966-1.733-3.262-2.272c-1.303-0.539-2.81-0.816-4.528-0.823
		c-1.718,0.007-3.225,0.284-4.521,0.823c-1.304,0.539-2.395,1.296-3.27,2.272c-0.881,0.975-1.535,2.125-1.98,3.443
		c-0.444,1.325-0.67,2.767-0.67,4.34v3.538c0,1.572,0.226,3.014,0.67,4.331c0.445,1.326,1.099,2.476,1.98,3.451
		c0.874,0.976,1.966,1.733,3.27,2.272c1.296,0.539,2.803,0.816,4.521,0.823c1.717-0.007,3.225-0.284,4.528-0.823
		c1.296-0.539,2.388-1.296,3.262-2.272c0.88-0.975,1.543-2.125,1.979-3.451C239.613,53.191,239.839,51.749,239.839,50.176
		L239.839,50.176z M234.073,50.176c0,1.201-0.175,2.242-0.531,3.123c-0.357,0.881-0.882,1.558-1.573,2.038
		c-0.692,0.488-1.551,0.729-2.569,0.736c-1.02-0.007-1.879-0.247-2.571-0.736c-0.691-0.48-1.215-1.157-1.572-2.038
		c-0.357-0.881-0.531-1.922-0.531-3.123v-3.538c0-1.202,0.174-2.243,0.531-3.124c0.357-0.881,0.881-1.558,1.572-2.038
		c0.692-0.488,1.551-0.729,2.571-0.736c1.019,0.007,1.878,0.247,2.569,0.736c0.692,0.48,1.216,1.157,1.573,2.038
		c0.356,0.881,0.531,1.922,0.531,3.124V50.176L234.073,50.176z M247.845,59.786V28.334c-0.007-0.248-0.081-0.451-0.233-0.619
		c-0.153-0.16-0.349-0.247-0.597-0.255h-4.062c-0.248,0.007-0.451,0.094-0.619,0.255c-0.16,0.168-0.248,0.371-0.255,0.619v31.452
		c0.006,0.247,0.094,0.459,0.255,0.641c0.168,0.175,0.371,0.269,0.619,0.276h4.062c0.248-0.007,0.444-0.102,0.597-0.276
		C247.765,60.245,247.838,60.034,247.845,59.786L247.845,59.786z M270.792,50.482V36.984c-0.008-0.248-0.081-0.459-0.234-0.641
		c-0.152-0.175-0.349-0.27-0.596-0.276h-4.106c-0.247,0.006-0.444,0.102-0.597,0.276c-0.145,0.181-0.226,0.393-0.233,0.641v13.498
		c0,1.129-0.102,2.061-0.298,2.789c-0.197,0.736-0.481,1.303-0.845,1.711c-0.372,0.408-0.808,0.692-1.326,0.859
		c-0.516,0.16-1.091,0.24-1.725,0.233h-0.263c-0.633,0.007-1.208-0.073-1.725-0.233c-0.51-0.168-0.954-0.451-1.325-0.859
		c-0.364-0.408-0.649-0.975-0.845-1.711c-0.197-0.728-0.299-1.659-0.299-2.789V36.984c-0.007-0.248-0.08-0.459-0.233-0.641
		c-0.153-0.175-0.35-0.27-0.597-0.276h-4.106c-0.247,0.006-0.444,0.102-0.596,0.276c-0.153,0.181-0.226,0.393-0.234,0.641v13.498
		c0.008,1.58,0.197,2.941,0.561,4.092c0.364,1.143,0.845,2.104,1.449,2.884c0.604,0.779,1.274,1.404,2.002,1.878
		c0.735,0.48,1.47,0.845,2.22,1.092c0.75,0.247,1.449,0.415,2.097,0.502c0.648,0.087,1.194,0.131,1.63,0.124h0.263
		c0.437,0.007,0.982-0.037,1.63-0.124c0.655-0.087,1.347-0.255,2.097-0.502c0.75-0.247,1.485-0.612,2.22-1.092
		c0.729-0.474,1.397-1.099,2.002-1.878c0.605-0.779,1.085-1.741,1.449-2.884C270.596,53.423,270.784,52.062,270.792,50.482
		L270.792,50.482z M285.962,59.917v-2.708c0-0.218-0.087-0.379-0.247-0.488c-0.16-0.108-0.385-0.167-0.67-0.167h-3.451
		c-0.626,0.007-1.136-0.043-1.529-0.146c-0.393-0.102-0.677-0.298-0.859-0.596c-0.189-0.299-0.276-0.735-0.276-1.31v-14.11h6.16
		c0.247-0.008,0.451-0.095,0.618-0.256c0.16-0.167,0.247-0.371,0.255-0.618V36.94c-0.007-0.248-0.094-0.451-0.255-0.619
		c-0.167-0.16-0.372-0.248-0.618-0.255h-6.16v-4.281c-0.007-0.226-0.08-0.43-0.226-0.604c-0.139-0.168-0.314-0.263-0.517-0.269
		c-0.044,0-0.088,0-0.131,0l-4.063,0.699c-0.247,0.043-0.451,0.138-0.619,0.291c-0.16,0.146-0.247,0.342-0.255,0.583v22.017
		c0,1.259,0.16,2.315,0.474,3.159c0.305,0.845,0.764,1.522,1.354,2.017c0.596,0.496,1.317,0.853,2.17,1.064
		c0.851,0.211,1.82,0.32,2.905,0.313c0.619,0,1.259-0.023,1.907-0.052c0.648-0.035,1.261-0.079,1.821-0.131
		c0.561-0.051,1.027-0.11,1.384-0.168c0.284-0.043,0.495-0.131,0.625-0.262C285.897,60.31,285.962,60.136,285.962,59.917
		L285.962,59.917z M293.009,31.916v-3.844c-0.008-0.247-0.095-0.451-0.255-0.619c-0.168-0.16-0.372-0.247-0.619-0.255h-4.238
		c-0.248,0.008-0.459,0.095-0.641,0.255c-0.175,0.168-0.269,0.372-0.276,0.619v3.844c0.007,0.248,0.102,0.451,0.276,0.619
		c0.182,0.16,0.393,0.247,0.641,0.255h4.238c0.247-0.007,0.451-0.094,0.619-0.255C292.914,32.367,293.001,32.164,293.009,31.916
		L293.009,31.916z M292.877,59.786V36.94c-0.007-0.248-0.094-0.451-0.255-0.619c-0.168-0.16-0.372-0.248-0.619-0.255h-4.019
		c-0.247,0.006-0.451,0.094-0.619,0.255c-0.16,0.168-0.247,0.371-0.255,0.619v22.846c0.008,0.247,0.095,0.459,0.255,0.641
		c0.168,0.175,0.372,0.269,0.619,0.276h4.019c0.247-0.007,0.451-0.102,0.619-0.276C292.783,60.245,292.87,60.034,292.877,59.786
		L292.877,59.786z M315.911,50.176v-3.538c0-1.573-0.226-3.015-0.67-4.34c-0.437-1.318-1.099-2.468-1.98-3.443
		c-0.874-0.976-1.966-1.733-3.262-2.272c-1.304-0.539-2.811-0.816-4.529-0.823c-1.718,0.007-3.225,0.284-4.521,0.823
		c-1.303,0.539-2.395,1.296-3.269,2.272c-0.881,0.975-1.536,2.125-1.98,3.443c-0.445,1.325-0.671,2.767-0.671,4.34v3.538
		c0,1.572,0.226,3.014,0.671,4.331c0.444,1.326,1.099,2.476,1.98,3.451c0.874,0.976,1.966,1.733,3.269,2.272
		c1.296,0.539,2.803,0.816,4.521,0.823c1.718-0.007,3.225-0.284,4.529-0.823c1.296-0.539,2.388-1.296,3.262-2.272
		c0.881-0.975,1.543-2.125,1.98-3.451C315.686,53.191,315.911,51.749,315.911,50.176L315.911,50.176z M310.145,50.176
		c0,1.201-0.174,2.242-0.531,3.123c-0.357,0.881-0.881,1.558-1.572,2.038c-0.691,0.488-1.551,0.729-2.57,0.736
		c-1.02-0.007-1.879-0.247-2.57-0.736c-0.691-0.48-1.215-1.157-1.573-2.038c-0.356-0.881-0.531-1.922-0.531-3.123v-3.538
		c0-1.202,0.175-2.243,0.531-3.124c0.358-0.881,0.882-1.558,1.573-2.038c0.692-0.488,1.551-0.729,2.57-0.736
		c1.02,0.007,1.879,0.247,2.57,0.736c0.691,0.48,1.215,1.157,1.572,2.038s0.531,1.922,0.531,3.124V50.176L310.145,50.176z
		 M337.897,59.786V44.672c0-1.776-0.335-3.327-1.004-4.659c-0.662-1.333-1.646-2.373-2.942-3.116
		c-1.296-0.743-2.898-1.122-4.791-1.136h-2.708c-1.894,0.015-3.495,0.393-4.791,1.136c-1.296,0.742-2.278,1.783-2.941,3.116
		c-0.671,1.332-1.005,2.883-1.005,4.659v15.115c0.007,0.247,0.08,0.459,0.233,0.641c0.153,0.175,0.35,0.269,0.597,0.276h4.106
		c0.247-0.007,0.444-0.102,0.596-0.276c0.153-0.182,0.226-0.393,0.234-0.641V44.672c-0.008-0.728,0.058-1.397,0.203-2.016
		c0.153-0.619,0.445-1.121,0.874-1.5c0.43-0.386,1.056-0.582,1.894-0.59h2.708c0.837,0.008,1.47,0.204,1.9,0.59
		c0.429,0.379,0.713,0.881,0.866,1.5c0.146,0.619,0.219,1.289,0.205,2.016v15.115c0.006,0.247,0.087,0.459,0.232,0.641
		c0.153,0.175,0.35,0.269,0.598,0.276h4.105c0.248-0.007,0.445-0.102,0.597-0.276C337.817,60.245,337.889,60.034,337.897,59.786
		L337.897,59.786z M356.999,54.238c0.007-0.553-0.036-1.114-0.139-1.667c-0.102-0.546-0.291-1.099-0.582-1.653
		c-0.292-0.554-0.714-1.107-1.267-1.653c-0.561-0.553-1.296-1.114-2.207-1.667l-5.722-3.495c-0.553-0.32-0.975-0.611-1.281-0.88
		c-0.306-0.27-0.459-0.575-0.466-0.911c-0.007-0.67,0.233-1.143,0.721-1.427c0.488-0.284,1.252-0.415,2.294-0.408
		c0.633,0,1.303,0.022,2.002,0.058c0.706,0.037,1.398,0.081,2.075,0.139c0.677,0.058,1.289,0.109,1.842,0.168
		c0.546,0.065,0.976,0.116,1.289,0.16c0.044,0,0.088,0,0.131,0c0.226,0,0.4-0.073,0.538-0.218c0.131-0.146,0.205-0.349,0.205-0.612
		v-2.533c0-0.262-0.066-0.481-0.197-0.648c-0.132-0.175-0.328-0.291-0.59-0.357c-0.729-0.16-1.471-0.305-2.221-0.437
		c-0.75-0.139-1.565-0.24-2.461-0.321c-0.895-0.073-1.922-0.116-3.094-0.116c-2.774,0-4.849,0.546-6.232,1.638
		c-1.376,1.092-2.067,2.73-2.067,4.914c0.006,0.845,0.167,1.646,0.472,2.395c0.314,0.75,0.743,1.435,1.296,2.054
		c0.546,0.612,1.18,1.136,1.9,1.58l5.985,3.669c0.466,0.284,0.837,0.546,1.121,0.779c0.285,0.233,0.488,0.466,0.612,0.699
		c0.131,0.226,0.189,0.48,0.189,0.75c0.015,0.401-0.059,0.75-0.204,1.07c-0.146,0.314-0.444,0.561-0.888,0.743
		c-0.451,0.189-1.122,0.276-2.01,0.284c-0.342,0-0.808-0.015-1.405-0.036c-0.597-0.029-1.252-0.059-1.966-0.102
		c-0.721-0.05-1.427-0.102-2.118-0.153c-0.7-0.058-1.311-0.123-1.85-0.189c-0.044,0-0.088,0-0.131,0
		c-0.24,0.007-0.437,0.08-0.575,0.218c-0.138,0.138-0.211,0.299-0.211,0.48v2.621c0,0.262,0.073,0.48,0.219,0.648
		c0.145,0.175,0.349,0.291,0.611,0.357c0.619,0.16,1.289,0.298,2.016,0.415c0.721,0.109,1.449,0.196,2.17,0.269
		c0.729,0.065,1.406,0.117,2.039,0.146c0.626,0.029,1.157,0.043,1.594,0.043c1.435-0.007,2.68-0.182,3.75-0.532
		c1.07-0.349,1.966-0.83,2.679-1.448c0.713-0.62,1.245-1.347,1.601-2.17C356.824,56.081,356.999,55.193,356.999,54.238z"/>
	<path class="st13" d="M103.53,47.426c-6.122,5.284-12.377,10.703-18.772,16.237c-6.571,5.688-13.298,11.507-20.191,17.475
		c-3.155,2.731-8.444,2.593-11.706-0.315c-3.655-3.258-7.307-6.517-10.956-9.774c-3.64-3.25-7.287-6.491-10.933-9.741l-3.501-3.121
		h22.047l4.784,4.968c-0.483,0.87-0.757,1.871-0.757,2.932c0,1.673,0.682,3.191,1.784,4.295l-0.003,0.003
		c1.1,1.1,2.62,1.78,4.298,1.78c1.67,0,3.189-0.68,4.291-1.78l0.003-0.003l0.003-0.003c1.101-1.103,1.781-2.62,1.781-4.292
		c0-1.678-0.681-3.198-1.781-4.297l-0.003,0.003c-1.103-1.103-2.622-1.784-4.294-1.784c-1.017,0-1.977,0.251-2.821,0.697
		l-5.307-5.51l-0.521-0.542h-0.739l-0.744,0.048H23.56l-3.556-3.17l-1.861-1.657h36.883l6.525,6.775l0.521,0.542h0.74h7.192
		c0.292,0.978,0.826,1.856,1.532,2.563l-0.003,0.003c1.1,1.099,2.62,1.78,4.298,1.78c1.671,0,3.189-0.68,4.292-1.78l0.003-0.003
		l0.003-0.003c1.101-1.103,1.781-2.621,1.781-4.292c0-1.678-0.681-3.198-1.781-4.298l-0.003,0.003
		c-1.103-1.102-2.622-1.784-4.295-1.784c-1.678,0-3.198,0.681-4.298,1.78l0.003,0.003c-0.695,0.696-1.223,1.557-1.518,2.518h-6.466
		l-6.533-6.784l-0.521-0.541h-0.74l-0.697,0.034v-0.002H14.223c-1.565-1.392-3.129-2.784-4.691-4.176H58.01
		c0.273,1.078,0.833,2.042,1.596,2.805c1.1,1.1,2.62,1.781,4.298,1.781c1.672,0,3.191-0.683,4.294-1.784l0.003,0.003
		c1.1-1.099,1.781-2.619,1.781-4.297c0-1.672-0.681-3.189-1.781-4.292l-0.003-0.003l-0.003-0.003c-1.103-1.1-2.621-1.78-4.291-1.78
		c-1.678,0-3.198,0.68-4.298,1.78l0.003,0.003c-0.637,0.637-1.133,1.414-1.439,2.278l-0.365,0.012H6.987
		c-0.419-1.303-0.372-2.662,0.131-3.905h47.184v-0.01h1.456h0.74l0.521-0.542l6.533-6.783h6.466
		c0.295,0.961,0.823,1.821,1.518,2.517l-0.003,0.003c1.1,1.1,2.62,1.78,4.298,1.78c1.672,0,3.192-0.682,4.295-1.784l0.003,0.003
		c1.1-1.1,1.781-2.62,1.781-4.298c0-1.67-0.68-3.188-1.781-4.291l-0.003-0.003l-0.003-0.003c-1.103-1.101-2.621-1.781-4.292-1.781
		c-1.678,0-3.198,0.681-4.298,1.781l0.003,0.003c-0.706,0.706-1.239,1.584-1.532,2.563h-7.192h-0.74l-0.521,0.541l-6.533,6.784
		l-0.801,0.033H10.335c2.283-1.621,4.55-3.228,6.8-4.821h33.099h0.739l0.521-0.541l5.307-5.511c0.844,0.446,1.804,0.697,2.821,0.697
		c1.672,0,3.191-0.682,4.294-1.784l0.003,0.003c1.1-1.101,1.781-2.621,1.781-4.298c0-1.671-0.68-3.189-1.781-4.292l-0.003-0.003
		l-0.003-0.003c-1.103-1.1-2.621-1.781-4.291-1.781c-1.678,0-3.198,0.682-4.298,1.781l0.003,0.003
		c-1.102,1.103-1.784,2.623-1.784,4.295c0,1.061,0.274,2.062,0.757,2.933l-4.807,4.991l-0.281,0.017H22.069
		c3.237-2.29,6.44-4.555,9.608-6.795c7.065-4.996,13.942-9.875,20.677-14.635c2.964-2.095,7.796-1.591,10.778,1.082
		c6.65,5.961,13.293,11.915,19.943,17.876c6.635,5.946,13.269,11.893,19.895,17.832C105.944,41.036,106.23,45.096,103.53,47.426
		L103.53,47.426z M65.886,42.702c0.507-0.507,0.821-1.208,0.821-1.982c0-0.779-0.311-1.48-0.815-1.983l-0.006-0.006
		c-0.503-0.503-1.204-0.815-1.982-0.815c-0.774,0-1.475,0.314-1.983,0.821h-0.006c-0.503,0.503-0.815,1.204-0.815,1.983
		c0,0.774,0.314,1.475,0.821,1.982c0.507,0.507,1.209,0.821,1.983,0.821c0.778,0,1.479-0.311,1.982-0.815V42.702L65.886,42.702z
		 M77.812,27.682c0.507-0.508,0.821-1.209,0.821-1.983c0-0.778-0.311-1.479-0.815-1.983l-0.006-0.006
		c-0.503-0.504-1.204-0.815-1.982-0.815c-0.774,0-1.475,0.314-1.982,0.82h-0.006c-0.503,0.504-0.815,1.205-0.815,1.983
		c0,0.778,0.312,1.48,0.815,1.983h0.006c0.507,0.508,1.208,0.821,1.982,0.821c0.778,0,1.479-0.312,1.982-0.815V27.682L77.812,27.682
		z M61.605,17.053c0.507-0.507,0.821-1.207,0.821-1.982c0-0.778-0.311-1.479-0.815-1.982l-0.006-0.006
		c-0.503-0.504-1.204-0.816-1.982-0.816c-0.774,0-1.475,0.314-1.983,0.822h-0.006c-0.503,0.503-0.815,1.204-0.815,1.982
		c0,0.778,0.312,1.479,0.815,1.982l0.006,0.006c0.503,0.503,1.204,0.816,1.983,0.816c0.778,0,1.479-0.313,1.982-0.816V17.053
		L61.605,17.053z M77.812,53.478v-0.007c-0.503-0.504-1.204-0.816-1.982-0.816c-0.774,0-1.475,0.314-1.982,0.822h-0.006
		c-0.503,0.503-0.815,1.204-0.815,1.982c0,0.778,0.312,1.479,0.815,1.982h0.006c0.507,0.508,1.208,0.822,1.982,0.822
		c0.778,0,1.479-0.313,1.982-0.816l0.006-0.006c0.503-0.503,0.815-1.204,0.815-1.982C78.634,54.685,78.32,53.984,77.812,53.478
		L77.812,53.478z M61.605,64.106v-0.006c-0.503-0.504-1.204-0.815-1.982-0.815c-0.778,0-1.48,0.311-1.983,0.815l-0.006,0.006
		c-0.503,0.503-0.815,1.204-0.815,1.982c0,0.778,0.312,1.48,0.815,1.983h0.006c0.507,0.507,1.208,0.82,1.983,0.82
		c0.778,0,1.479-0.311,1.982-0.814l0.006-0.006c0.503-0.503,0.815-1.204,0.815-1.983C62.426,65.314,62.113,64.612,61.605,64.106z"/>
	<path class="st14" d="M102.68,46.19c-5.93,5.239-12.037,10.621-18.288,16.149c-6.406,5.666-12.995,11.487-19.769,17.477
		c-3.103,2.744-8.321,2.643-11.542-0.223c-3.607-3.209-7.228-6.427-10.824-9.639c-3.594-3.211-7.208-6.402-10.803-9.607
		l-1.767-1.575h20.064l4.785,4.968c-0.483,0.87-0.758,1.871-0.758,2.932c0,1.672,0.682,3.192,1.784,4.294l-0.003,0.003
		c1.1,1.101,2.62,1.781,4.298,1.781c1.671,0,3.189-0.68,4.291-1.781l0.003-0.003l0.003-0.002c1.101-1.103,1.781-2.621,1.781-4.292
		c0-1.678-0.681-3.198-1.781-4.297l-0.003,0.003c-1.103-1.103-2.622-1.784-4.295-1.784c-1.016,0-1.977,0.251-2.821,0.696
		l-5.307-5.509l-0.521-0.542h-0.74l-0.743,0.048h-23.95c-1.72-1.532-3.441-3.064-5.158-4.595l-0.26-0.232H55.26l6.525,6.775
		l0.521,0.542h0.74h7.192c0.293,0.978,0.826,1.855,1.532,2.562l-0.003,0.003c1.1,1.1,2.62,1.78,4.298,1.78
		c1.67,0,3.189-0.68,4.291-1.78l0.003-0.003l0.003-0.002c1.1-1.103,1.781-2.621,1.781-4.292c0-1.677-0.681-3.198-1.781-4.297
		l-0.003,0.003c-1.103-1.103-2.622-1.784-4.294-1.784c-1.678,0-3.198,0.681-4.298,1.781l0.003,0.003
		c-0.695,0.696-1.223,1.557-1.518,2.518h-6.466l-6.533-6.784l-0.521-0.541h-0.74l-0.697,0.034v-0.002H16.443
		c-1.565-1.392-3.131-2.785-4.697-4.176h46.499c0.273,1.078,0.833,2.042,1.596,2.805c1.1,1.1,2.62,1.78,4.298,1.78
		c1.672,0,3.191-0.682,4.294-1.784l0.003,0.003c1.1-1.1,1.781-2.62,1.781-4.298c0-1.671-0.68-3.189-1.781-4.292l-0.003-0.003
		l-0.003-0.003c-1.102-1.1-2.621-1.78-4.291-1.78c-1.678,0-3.198,0.681-4.298,1.78l0.003,0.003
		c-0.637,0.638-1.134,1.414-1.439,2.279L58.04,39.3H8.325c-0.732-1.241-0.988-2.602-0.778-3.904h46.989v-0.01h1.456h0.74
		l0.521-0.542l6.533-6.784h6.466c0.295,0.961,0.823,1.822,1.518,2.517l-0.003,0.003c1.1,1.101,2.62,1.781,4.298,1.781
		c1.672,0,3.192-0.682,4.294-1.784l0.003,0.003c1.1-1.099,1.781-2.619,1.781-4.297c0-1.671-0.68-3.189-1.781-4.292l-0.003-0.002
		l-0.003-0.003c-1.103-1.101-2.621-1.781-4.291-1.781c-1.678,0-3.198,0.68-4.298,1.781l0.003,0.003
		c-0.706,0.706-1.239,1.583-1.532,2.562h-7.192h-0.74l-0.521,0.542l-6.533,6.784L54.45,31.91H9.486
		c0.221-0.202,0.459-0.396,0.716-0.578c2.004-1.426,3.995-2.84,5.972-4.244h34.294h0.74l0.521-0.541l5.307-5.51
		c0.844,0.445,1.805,0.697,2.821,0.697c1.672,0,3.192-0.683,4.295-1.784l0.003,0.004c1.1-1.101,1.781-2.621,1.781-4.299
		c0-1.67-0.68-3.188-1.781-4.291l-0.003-0.003l-0.003-0.003c-1.103-1.101-2.621-1.781-4.291-1.781c-1.678,0-3.198,0.681-4.298,1.781
		l0.003,0.003c-1.102,1.103-1.784,2.623-1.784,4.294c0,1.062,0.275,2.062,0.758,2.934l-4.807,4.99l-0.282,0.018H21.095l11.118-7.885
		c6.942-4.924,13.72-9.747,20.325-14.432c2.909-2.064,7.632-1.571,10.549,1.044c6.512,5.837,13.025,11.673,19.52,17.495
		c6.504,5.829,13,11.652,19.479,17.459C104.994,39.884,105.296,43.88,102.68,46.19L102.68,46.19z M66.12,43.287
		c0.507-0.507,0.821-1.208,0.821-1.983c0-0.778-0.312-1.479-0.815-1.982l-0.006-0.006c-0.503-0.503-1.204-0.815-1.982-0.815
		c-0.774,0-1.475,0.314-1.982,0.821h-0.006c-0.503,0.503-0.815,1.204-0.815,1.982c0,0.774,0.314,1.476,0.821,1.983
		c0.507,0.507,1.208,0.821,1.982,0.821c0.778,0,1.479-0.312,1.982-0.816V43.287L66.12,43.287z M78.047,28.267
		c0.507-0.508,0.821-1.209,0.821-1.983c0-0.779-0.311-1.48-0.815-1.983l-0.006-0.006c-0.503-0.503-1.204-0.814-1.982-0.814
		c-0.774,0-1.475,0.314-1.983,0.82h-0.006c-0.503,0.503-0.815,1.204-0.815,1.983c0,0.778,0.311,1.48,0.815,1.983h0.006
		c0.507,0.507,1.208,0.82,1.983,0.82c0.778,0,1.479-0.311,1.982-0.814V28.267L78.047,28.267z M61.839,17.638
		c0.507-0.507,0.821-1.208,0.821-1.983c0-0.778-0.312-1.479-0.815-1.982l-0.006-0.006c-0.503-0.503-1.204-0.815-1.982-0.815
		c-0.774,0-1.475,0.314-1.982,0.821h-0.006c-0.503,0.503-0.815,1.204-0.815,1.982c0,0.778,0.311,1.48,0.815,1.983l0.006,0.006
		c0.503,0.503,1.204,0.815,1.982,0.815c0.778,0,1.479-0.312,1.982-0.815V17.638L61.839,17.638z M78.047,54.062v-0.006
		c-0.503-0.503-1.204-0.815-1.982-0.815c-0.774,0-1.475,0.314-1.983,0.821h-0.006c-0.503,0.503-0.815,1.204-0.815,1.982
		c0,0.779,0.311,1.48,0.815,1.983h0.006c0.507,0.508,1.208,0.821,1.983,0.821c0.778,0,1.479-0.312,1.982-0.815l0.006-0.006
		c0.503-0.503,0.815-1.204,0.815-1.983C78.867,55.27,78.553,54.569,78.047,54.062L78.047,54.062z M61.839,64.69v-0.006
		c-0.503-0.503-1.204-0.814-1.982-0.814c-0.778,0-1.479,0.311-1.982,0.814l-0.006,0.006c-0.503,0.503-0.815,1.204-0.815,1.983
		c0,0.779,0.311,1.48,0.815,1.983h0.006c0.507,0.507,1.208,0.82,1.982,0.82c0.778,0,1.479-0.311,1.982-0.814l0.006-0.006
		c0.503-0.503,0.815-1.204,0.815-1.983C62.661,65.899,62.347,65.198,61.839,64.69z"/>
	<linearGradient id="SVGID_2_" gradientUnits="userSpaceOnUse" x1="115.7779" y1="86.4673" x2="3.6159" y2="19.0736">
		<stop  offset="0" style="stop-color:#00A651"/>
		<stop  offset="0.25" style="stop-color:#007236"/>
		<stop  offset="0.34" style="stop-color:#A6CE39"/>
		<stop  offset="0.38" style="stop-color:#F8F8F9"/>
		<stop  offset="0.48" style="stop-color:#D2E288"/>
		<stop  offset="0.67" style="stop-color:#00A651"/>
		<stop  offset="1" style="stop-color:#D2E288"/>
	</linearGradient>
	<path class="st15" d="M104.382,40.02c2.685,4.06-0.511,7.041-1.048,7.64L58.612,86.902c-3.393,1.888-7.283,1.123-10.893-2
		c-6.483-5.891-15.419-14.026-21.85-19.886C19.464,59.18,13.06,53.374,6.697,47.589C1.884,43.464,6.676,35.738,7.6,33.76
		c-0.649,1.954-1.215,4.425,0.756,7.374c7.452,6.577,14.686,13.072,21.94,19.584c7.298,6.552,14.644,13.119,22.275,19.867
		c3.304,2.556,6.815,3.183,10.612,1.375c6.04-5.183,12.429-10.677,19.18-16.47c6.464-5.547,13.304-11.409,20.523-17.602
		c0.58-0.498,0.974-0.912,1.378-1.556C105.046,45.09,105.948,42.879,104.382,40.02z"/>
	<radialGradient id="SVGID_3_" cx="55.8739" cy="-7.2687" r="100.1937" gradientUnits="userSpaceOnUse">
		<stop  offset="0" style="stop-color:#D2E288"/>
		<stop  offset="0.51" style="stop-color:#A6CE39"/>
		<stop  offset="1" style="stop-color:#007236"/>
	</radialGradient>
	<path class="st16" d="M101.9,46.504c-5.886,5.043-11.949,10.225-18.155,15.548c-6.359,5.455-12.9,11.059-19.624,16.827
		c-3.08,2.641-8.228,2.513-11.385-0.285c-3.535-3.133-7.085-6.274-10.609-9.409c-3.523-3.133-7.065-6.248-10.588-9.377l-0.785-0.696
		h19.168l4.784,4.968c-0.483,0.87-0.757,1.871-0.757,2.933c0,1.672,0.682,3.191,1.784,4.294l-0.003,0.004
		c1.1,1.099,2.62,1.78,4.298,1.78c1.67,0,3.189-0.681,4.291-1.78l0.003-0.004l0.003-0.002c1.101-1.103,1.781-2.621,1.781-4.292
		c0-1.678-0.681-3.198-1.781-4.298l-0.003,0.003c-1.103-1.103-2.623-1.784-4.294-1.784c-1.017,0-1.977,0.252-2.821,0.697
		l-5.307-5.51l-0.521-0.542h-0.74l-0.743,0.048h-23.07c-1.814-1.609-3.63-3.219-5.441-4.828H55.43l6.525,6.775l0.521,0.542h0.74
		h7.192c0.292,0.978,0.826,1.856,1.532,2.563l-0.003,0.003c1.1,1.099,2.62,1.781,4.298,1.781c1.671,0,3.189-0.68,4.292-1.781
		l0.003-0.003l0.004-0.003c1.1-1.103,1.781-2.621,1.781-4.291c0-1.678-0.681-3.198-1.781-4.299l-0.004,0.003
		c-1.103-1.102-2.622-1.784-4.294-1.784c-1.678,0-3.198,0.681-4.298,1.78l0.003,0.003c-0.695,0.696-1.223,1.557-1.518,2.518h-6.466
		l-6.533-6.783l-0.521-0.542h-0.739l-0.697,0.034v-0.002h-38.01c-1.571-1.392-3.144-2.785-4.716-4.176h45.677
		c0.273,1.078,0.833,2.042,1.596,2.806c1.1,1.099,2.62,1.78,4.298,1.78c1.672,0,3.191-0.682,4.294-1.784l0.003,0.003
		c1.1-1.1,1.781-2.62,1.781-4.298c0-1.671-0.68-3.189-1.781-4.292l-0.003-0.002L68.6,37.347c-1.103-1.1-2.621-1.78-4.291-1.78
		c-1.678,0-3.198,0.68-4.298,1.78l0.003,0.004c-0.637,0.637-1.133,1.414-1.439,2.278l-0.365,0.013H9.108
		c-0.84-1.227-1.173-2.592-1.014-3.906h46.612v-0.01h1.456h0.739l0.521-0.542l6.533-6.783h6.466
		c0.295,0.961,0.823,1.821,1.518,2.518l-0.003,0.003c1.1,1.099,2.62,1.78,4.298,1.78c1.672,0,3.192-0.683,4.294-1.784l0.004,0.003
		c1.1-1.101,1.781-2.621,1.781-4.299c0-1.67-0.681-3.188-1.781-4.291l-0.004-0.003l-0.003-0.003
		c-1.103-1.101-2.621-1.781-4.292-1.781c-1.678,0-3.198,0.681-4.298,1.781l0.003,0.003c-0.706,0.706-1.24,1.584-1.532,2.563h-7.192
		h-0.74l-0.521,0.542l-6.533,6.783l-0.801,0.034H9.918c0.26-0.247,0.547-0.479,0.861-0.695c2.011-1.386,4.008-2.762,5.992-4.126
		h33.867h0.74l0.521-0.542l5.307-5.511c0.844,0.446,1.805,0.698,2.821,0.698c1.672,0,3.191-0.683,4.294-1.784l0.003,0.003
		c1.1-1.1,1.781-2.62,1.781-4.298c0-1.671-0.68-3.189-1.781-4.292l-0.003-0.003l-0.003-0.003c-1.103-1.1-2.621-1.78-4.291-1.78
		c-1.678,0-3.198,0.681-4.298,1.78l0.003,0.003c-1.102,1.103-1.784,2.623-1.784,4.295c0,1.061,0.274,2.062,0.757,2.933l-4.807,4.992
		l-0.281,0.016h-27.77l10.755-7.394c6.882-4.733,13.604-9.368,20.152-13.871c2.885-1.984,7.54-1.478,10.399,1.074
		c6.383,5.696,12.766,11.394,19.133,17.076c6.375,5.689,12.741,11.372,19.092,17.039C104.228,40.404,104.497,44.279,101.9,46.504
		L101.9,46.504z M66.291,43.628c0.507-0.508,0.821-1.209,0.821-1.983c0-0.778-0.312-1.48-0.815-1.983l-0.006-0.006
		c-0.503-0.503-1.204-0.814-1.982-0.814c-0.774,0-1.475,0.313-1.983,0.82H62.32c-0.503,0.503-0.815,1.204-0.815,1.983
		c0,0.774,0.314,1.475,0.821,1.983c0.507,0.507,1.208,0.82,1.983,0.82c0.778,0,1.479-0.311,1.982-0.814V43.628L66.291,43.628z
		 M78.217,28.607c0.507-0.507,0.821-1.208,0.821-1.983c0-0.778-0.312-1.479-0.815-1.982l-0.007-0.006
		c-0.503-0.503-1.204-0.815-1.982-0.815c-0.774,0-1.475,0.314-1.982,0.821h-0.006c-0.503,0.503-0.815,1.204-0.815,1.982
		c0,0.778,0.312,1.48,0.815,1.983h0.006c0.507,0.508,1.209,0.821,1.982,0.821c0.778,0,1.479-0.312,1.982-0.815V28.607L78.217,28.607
		z M62.01,17.979c0.507-0.507,0.821-1.208,0.821-1.983c0-0.778-0.312-1.479-0.815-1.982l-0.006-0.006
		c-0.503-0.503-1.204-0.815-1.982-0.815c-0.774,0-1.475,0.313-1.983,0.821h-0.006c-0.503,0.503-0.815,1.204-0.815,1.982
		c0,0.779,0.312,1.479,0.815,1.983l0.006,0.006c0.503,0.504,1.204,0.816,1.983,0.816c0.778,0,1.479-0.312,1.982-0.816V17.979
		L62.01,17.979z M78.217,54.403v-0.007c-0.503-0.503-1.204-0.815-1.982-0.815c-0.774,0-1.475,0.314-1.982,0.821h-0.006
		c-0.503,0.503-0.815,1.204-0.815,1.983c0,0.778,0.312,1.479,0.815,1.982h0.006c0.507,0.507,1.209,0.821,1.982,0.821
		c0.778,0,1.479-0.312,1.982-0.816l0.007-0.006c0.503-0.503,0.815-1.204,0.815-1.982C79.038,55.611,78.724,54.91,78.217,54.403
		L78.217,54.403z M62.01,65.031v-0.006c-0.503-0.503-1.204-0.815-1.982-0.815c-0.779,0-1.48,0.312-1.983,0.815l-0.006,0.006
		c-0.503,0.503-0.815,1.204-0.815,1.983c0,0.778,0.312,1.479,0.815,1.982h0.006c0.507,0.508,1.209,0.821,1.983,0.821
		c0.778,0,1.479-0.312,1.982-0.815l0.006-0.006c0.503-0.503,0.815-1.204,0.815-1.982C62.831,66.239,62.517,65.538,62.01,65.031z"/>
	<g>
		<path class="st12" d="M111.663,67.277h5.991v1.174h-4.686v3.636h4.293v1.175h-4.293v3.952h4.765v1.175h-6.069V67.277z"/>
		<path class="st12" d="M127.858,78.389h-6.509V67.277h1.305v9.937h5.204V78.389z"/>
		<path class="st12" d="M130.735,67.277h5.991v1.174h-4.686v3.636h4.293v1.175h-4.293v3.952h4.765v1.175h-6.069V67.277z"/>
		<path class="st12" d="M147.465,77.929c-0.314,0.243-0.713,0.413-1.195,0.508c-0.482,0.095-0.996,0.143-1.541,0.143
			c-0.66,0-1.279-0.114-1.855-0.341c-0.577-0.227-1.08-0.574-1.51-1.04c-0.43-0.466-0.77-1.061-1.022-1.786
			c-0.252-0.725-0.377-1.585-0.377-2.58c0-1.037,0.139-1.918,0.416-2.643c0.278-0.725,0.645-1.318,1.101-1.778
			c0.456-0.46,0.967-0.796,1.533-1.008c0.566-0.211,1.142-0.318,1.729-0.318c0.629,0,1.143,0.035,1.541,0.103
			c0.398,0.069,0.739,0.162,1.022,0.278l-0.315,1.175c-0.503-0.254-1.221-0.381-2.154-0.381c-0.43,0-0.854,0.08-1.274,0.238
			c-0.419,0.159-0.794,0.418-1.124,0.779c-0.33,0.359-0.595,0.831-0.794,1.413c-0.199,0.582-0.299,1.296-0.299,2.143
			c0,0.762,0.094,1.429,0.283,2c0.189,0.571,0.448,1.048,0.778,1.429c0.33,0.38,0.718,0.667,1.164,0.857
			c0.445,0.191,0.93,0.286,1.454,0.286c0.472,0,0.883-0.048,1.234-0.143c0.351-0.095,0.647-0.217,0.888-0.365L147.465,77.929z"/>
		<path class="st12" d="M157.764,68.451h-3.428v9.938h-1.305v-9.938h-3.428v-1.174h8.16V68.451z"/>
		<path class="st12" d="M160.641,67.388c0.398-0.074,0.857-0.132,1.376-0.175c0.519-0.042,0.993-0.064,1.423-0.064
			c0.482,0,0.941,0.053,1.376,0.159c0.435,0.106,0.818,0.28,1.148,0.524c0.33,0.243,0.595,0.561,0.794,0.953
			c0.199,0.392,0.299,0.868,0.299,1.429c0,0.868-0.236,1.572-0.708,2.112c-0.472,0.539-1.069,0.899-1.792,1.079l0.755,0.588
			l2.736,4.397h-1.525l-3.034-4.795l-1.541-0.238v5.032h-1.305V67.388z M163.471,68.292c-0.136,0-0.278,0-0.424,0
			c-0.147,0-0.289,0.006-0.425,0.016c-0.136,0.01-0.265,0.022-0.385,0.032c-0.121,0.01-0.218,0.026-0.291,0.048v4.096h1.227
			c0.723,0,1.321-0.181,1.792-0.54c0.472-0.359,0.708-0.921,0.708-1.683c0-0.571-0.194-1.042-0.582-1.413
			C164.703,68.478,164.163,68.292,163.471,68.292z"/>
		<path class="st12" d="M170.798,72.833c0-1.852,0.388-3.273,1.164-4.263c0.776-0.99,1.881-1.485,3.318-1.485
			c0.776,0,1.446,0.138,2.012,0.413c0.566,0.275,1.035,0.664,1.407,1.166c0.372,0.503,0.647,1.107,0.826,1.81
			c0.178,0.704,0.267,1.489,0.267,2.357c0,1.852-0.39,3.273-1.171,4.263s-1.895,1.484-3.341,1.484c-0.765,0-1.428-0.137-1.989-0.413
			c-0.561-0.275-1.028-0.664-1.4-1.167c-0.372-0.502-0.647-1.106-0.825-1.809C170.887,74.487,170.798,73.701,170.798,72.833z
			 M172.182,72.833c0,0.614,0.06,1.196,0.181,1.746s0.307,1.034,0.558,1.452c0.252,0.418,0.574,0.751,0.967,1
			c0.393,0.249,0.857,0.373,1.392,0.373c0.975,0,1.74-0.373,2.295-1.119c0.556-0.746,0.833-1.897,0.833-3.453
			c0-0.604-0.06-1.183-0.18-1.738c-0.121-0.555-0.309-1.042-0.566-1.46c-0.257-0.418-0.582-0.751-0.975-1
			c-0.393-0.248-0.862-0.373-1.407-0.373c-0.965,0-1.722,0.373-2.272,1.119C172.457,70.126,172.182,71.278,172.182,72.833z"/>
		<path class="st12" d="M185.248,71.119l-0.848-1.604h-0.063l0.157,1.604v7.27h-1.227V67.102h0.692l5.268,7.414l0.817,1.524h0.079
			l-0.173-1.524v-7.239h1.227v11.287h-0.692L185.248,71.119z"/>
		<path class="st12" d="M195.404,67.277h1.305v11.112h-1.305V67.277z"/>
		<path class="st12" d="M207.984,77.929c-0.315,0.243-0.713,0.413-1.195,0.508c-0.482,0.095-0.996,0.143-1.541,0.143
			c-0.66,0-1.278-0.114-1.855-0.341c-0.577-0.227-1.08-0.574-1.509-1.04c-0.43-0.466-0.771-1.061-1.022-1.786
			c-0.251-0.725-0.377-1.585-0.377-2.58c0-1.037,0.138-1.918,0.417-2.643c0.278-0.725,0.644-1.318,1.101-1.778
			c0.456-0.46,0.967-0.796,1.533-1.008c0.566-0.211,1.143-0.318,1.73-0.318c0.629,0,1.142,0.035,1.54,0.103
			c0.399,0.069,0.739,0.162,1.022,0.278l-0.315,1.175c-0.503-0.254-1.222-0.381-2.154-0.381c-0.43,0-0.854,0.08-1.273,0.238
			c-0.419,0.159-0.794,0.418-1.124,0.779c-0.33,0.359-0.595,0.831-0.794,1.413c-0.199,0.582-0.298,1.296-0.298,2.143
			c0,0.762,0.094,1.429,0.283,2c0.189,0.571,0.448,1.048,0.778,1.429c0.33,0.38,0.717,0.667,1.164,0.857
			c0.445,0.191,0.93,0.286,1.454,0.286c0.472,0,0.883-0.048,1.234-0.143c0.352-0.095,0.647-0.217,0.889-0.365L207.984,77.929z"/>
		<path class="st12" d="M216.945,67.388c0.399-0.096,0.829-0.159,1.29-0.191c0.46-0.031,0.917-0.048,1.367-0.048
			c0.482,0,0.972,0.048,1.47,0.143c0.498,0.096,0.951,0.27,1.36,0.524c0.409,0.255,0.741,0.604,0.998,1.049
			c0.257,0.444,0.386,1.011,0.386,1.698c0,0.678-0.121,1.249-0.362,1.714c-0.241,0.466-0.561,0.845-0.96,1.136
			c-0.398,0.291-0.854,0.5-1.367,0.627c-0.514,0.127-1.044,0.19-1.588,0.19c-0.053,0-0.139,0-0.259,0
			c-0.12,0-0.246-0.002-0.377-0.008c-0.131-0.005-0.259-0.013-0.386-0.023c-0.125-0.01-0.215-0.021-0.267-0.032v4.223h-1.306V67.388
			z M219.634,68.292c-0.273,0-0.535,0.006-0.786,0.016c-0.251,0.01-0.451,0.037-0.597,0.08v4.604
			c0.052,0.021,0.136,0.035,0.251,0.039c0.115,0.006,0.236,0.01,0.362,0.016c0.126,0.006,0.246,0.008,0.362,0.008
			c0.115,0,0.199,0,0.252,0c0.356,0,0.709-0.035,1.061-0.103c0.351-0.069,0.668-0.193,0.951-0.373
			c0.283-0.18,0.511-0.434,0.684-0.762c0.173-0.328,0.259-0.746,0.259-1.254c0-0.434-0.082-0.796-0.244-1.087
			s-0.377-0.524-0.644-0.699c-0.268-0.174-0.569-0.299-0.904-0.373C220.306,68.33,219.97,68.292,219.634,68.292z"/>
		<path class="st12" d="M227.307,67.388c0.399-0.074,0.858-0.132,1.376-0.175c0.518-0.042,0.993-0.064,1.423-0.064
			c0.482,0,0.941,0.053,1.376,0.159c0.435,0.106,0.818,0.28,1.148,0.524c0.329,0.243,0.595,0.561,0.794,0.953
			c0.199,0.392,0.298,0.868,0.298,1.429c0,0.868-0.236,1.572-0.708,2.112c-0.471,0.539-1.069,0.899-1.792,1.079l0.755,0.588
			l2.736,4.397h-1.526l-3.035-4.795l-1.54-0.238v5.032h-1.306V67.388z M230.137,68.292c-0.136,0-0.278,0-0.424,0
			c-0.147,0-0.288,0.006-0.425,0.016c-0.136,0.01-0.264,0.022-0.385,0.032c-0.121,0.01-0.217,0.026-0.291,0.048v4.096h1.227
			c0.723,0,1.32-0.181,1.792-0.54c0.471-0.359,0.707-0.921,0.707-1.683c0-0.571-0.194-1.042-0.582-1.413
			S230.829,68.292,230.137,68.292z"/>
		<path class="st12" d="M237.464,72.833c0-1.852,0.388-3.273,1.163-4.263c0.776-0.99,1.881-1.485,3.318-1.485
			c0.775,0,1.446,0.138,2.012,0.413c0.566,0.275,1.035,0.664,1.407,1.166c0.372,0.503,0.647,1.107,0.826,1.81
			c0.178,0.704,0.267,1.489,0.267,2.357c0,1.852-0.39,3.273-1.171,4.263s-1.895,1.484-3.341,1.484c-0.765,0-1.428-0.137-1.989-0.413
			c-0.561-0.275-1.027-0.664-1.4-1.167c-0.372-0.502-0.647-1.106-0.825-1.809C237.553,74.487,237.464,73.701,237.464,72.833z
			 M238.848,72.833c0,0.614,0.06,1.196,0.18,1.746s0.306,1.034,0.559,1.452c0.251,0.418,0.573,0.751,0.967,1
			c0.393,0.249,0.857,0.373,1.391,0.373c0.974,0,1.74-0.373,2.296-1.119c0.555-0.746,0.833-1.897,0.833-3.453
			c0-0.604-0.06-1.183-0.18-1.738c-0.121-0.555-0.31-1.042-0.566-1.46c-0.257-0.418-0.582-0.751-0.975-1
			c-0.393-0.248-0.862-0.373-1.407-0.373c-0.965,0-1.722,0.373-2.272,1.119C239.123,70.126,238.848,71.278,238.848,72.833z"/>
		<path class="st12" d="M249.932,67.277c0.199-0.032,0.423-0.056,0.669-0.072c0.246-0.016,0.502-0.026,0.77-0.031
			c0.267-0.006,0.529-0.01,0.786-0.016c0.257-0.005,0.496-0.008,0.716-0.008c0.881,0,1.643,0.138,2.288,0.413
			c0.645,0.276,1.176,0.659,1.596,1.151c0.419,0.492,0.732,1.082,0.936,1.771c0.204,0.687,0.306,1.444,0.306,2.27
			c0,0.752-0.096,1.474-0.291,2.167c-0.194,0.693-0.501,1.307-0.919,1.842c-0.419,0.534-0.965,0.963-1.635,1.286
			c-0.671,0.322-1.484,0.484-2.437,0.484c-0.168,0-0.386-0.002-0.652-0.008c-0.268-0.005-0.543-0.015-0.825-0.031
			c-0.283-0.016-0.545-0.029-0.787-0.039c-0.241-0.01-0.414-0.027-0.519-0.048V67.277z M252.904,68.325c-0.137,0-0.286,0-0.448,0
			s-0.322,0.006-0.479,0.016c-0.157,0.01-0.301,0.021-0.432,0.031c-0.131,0.01-0.233,0.021-0.306,0.031v8.89
			c0.052,0.01,0.152,0.019,0.298,0.023c0.147,0.006,0.299,0.011,0.456,0.016c0.157,0.006,0.309,0.01,0.456,0.016
			c0.147,0.006,0.246,0.008,0.299,0.008c0.734,0,1.349-0.127,1.848-0.381c0.498-0.254,0.896-0.596,1.195-1.024
			c0.298-0.428,0.511-0.92,0.637-1.476c0.125-0.556,0.189-1.13,0.189-1.723c0-0.518-0.058-1.04-0.173-1.564
			s-0.315-0.997-0.598-1.421c-0.283-0.423-0.663-0.77-1.139-1.04C254.227,68.459,253.628,68.325,252.904,68.325z"/>
		<path class="st12" d="M268.423,67.277h1.258v7.413c0,0.667-0.086,1.244-0.259,1.731c-0.173,0.487-0.419,0.886-0.739,1.198
			c-0.32,0.312-0.705,0.542-1.156,0.691c-0.451,0.147-0.949,0.222-1.494,0.222c-1.3,0-2.279-0.296-2.94-0.889
			c-0.661-0.592-0.991-1.492-0.991-2.698v-7.668h1.306v7.048c0,0.562,0.055,1.035,0.165,1.421c0.11,0.387,0.275,0.699,0.495,0.937
			c0.221,0.238,0.496,0.41,0.825,0.516c0.33,0.106,0.716,0.159,1.156,0.159c0.849,0,1.457-0.235,1.825-0.707
			c0.367-0.471,0.55-1.246,0.55-2.326V67.277z"/>
		<path class="st12" d="M281.285,77.929c-0.315,0.243-0.713,0.413-1.195,0.508c-0.482,0.095-0.996,0.143-1.541,0.143
			c-0.66,0-1.278-0.114-1.855-0.341c-0.577-0.227-1.08-0.574-1.509-1.04c-0.43-0.466-0.771-1.061-1.022-1.786
			c-0.251-0.725-0.377-1.585-0.377-2.58c0-1.037,0.138-1.918,0.417-2.643c0.278-0.725,0.644-1.318,1.101-1.778
			c0.456-0.46,0.967-0.796,1.533-1.008c0.566-0.211,1.143-0.318,1.73-0.318c0.629,0,1.142,0.035,1.54,0.103
			c0.399,0.069,0.739,0.162,1.022,0.278l-0.315,1.175c-0.503-0.254-1.222-0.381-2.154-0.381c-0.43,0-0.854,0.08-1.273,0.238
			c-0.419,0.159-0.794,0.418-1.124,0.779c-0.33,0.359-0.595,0.831-0.794,1.413c-0.199,0.582-0.298,1.296-0.298,2.143
			c0,0.762,0.094,1.429,0.283,2c0.189,0.571,0.448,1.048,0.778,1.429c0.33,0.38,0.717,0.667,1.164,0.857
			c0.445,0.191,0.93,0.286,1.454,0.286c0.472,0,0.883-0.048,1.234-0.143c0.352-0.095,0.647-0.217,0.889-0.365L281.285,77.929z"/>
		<path class="st12" d="M291.898,68.451h-3.428v9.938h-1.305v-9.938h-3.428v-1.174h8.16V68.451z"/>
		<path class="st12" d="M299.916,67.277c0.199-0.032,0.423-0.056,0.669-0.072c0.246-0.016,0.503-0.026,0.77-0.031
			c0.267-0.006,0.529-0.01,0.786-0.016c0.257-0.005,0.496-0.008,0.716-0.008c0.881,0,1.643,0.138,2.288,0.413
			c0.645,0.276,1.176,0.659,1.596,1.151c0.419,0.492,0.732,1.082,0.936,1.771c0.204,0.687,0.306,1.444,0.306,2.27
			c0,0.752-0.096,1.474-0.291,2.167c-0.194,0.693-0.501,1.307-0.919,1.842c-0.419,0.534-0.965,0.963-1.635,1.286
			c-0.671,0.322-1.484,0.484-2.437,0.484c-0.168,0-0.385-0.002-0.652-0.008c-0.268-0.005-0.543-0.015-0.825-0.031
			c-0.283-0.016-0.545-0.029-0.787-0.039c-0.241-0.01-0.414-0.027-0.519-0.048V67.277z M302.889,68.325c-0.137,0-0.286,0-0.448,0
			c-0.162,0-0.322,0.006-0.479,0.016c-0.157,0.01-0.301,0.021-0.432,0.031s-0.233,0.021-0.306,0.031v8.89
			c0.052,0.01,0.152,0.019,0.298,0.023c0.147,0.006,0.299,0.011,0.456,0.016c0.157,0.006,0.309,0.01,0.456,0.016
			c0.147,0.006,0.246,0.008,0.299,0.008c0.734,0,1.349-0.127,1.848-0.381c0.498-0.254,0.896-0.596,1.195-1.024
			c0.298-0.428,0.511-0.92,0.637-1.476c0.125-0.556,0.189-1.13,0.189-1.723c0-0.518-0.058-1.04-0.173-1.564
			s-0.315-0.997-0.598-1.421c-0.283-0.423-0.663-0.77-1.139-1.04C304.211,68.459,303.612,68.325,302.889,68.325z"/>
		<path class="st12" d="M311.772,67.277h5.991v1.174h-4.685v3.636h4.293v1.175h-4.293v3.952h4.764v1.175h-6.069V67.277z"/>
		<path class="st12" d="M326.425,75.564c0-0.445-0.131-0.807-0.393-1.087c-0.262-0.28-0.59-0.53-0.983-0.746
			c-0.393-0.217-0.82-0.421-1.282-0.612c-0.461-0.19-0.888-0.421-1.281-0.69c-0.394-0.27-0.721-0.604-0.983-1
			c-0.263-0.397-0.393-0.903-0.393-1.516c0-0.868,0.298-1.556,0.896-2.064c0.597-0.508,1.447-0.762,2.547-0.762
			c0.639,0,1.221,0.048,1.745,0.143c0.525,0.095,0.933,0.217,1.227,0.365l-0.393,1.174c-0.241-0.12-0.595-0.235-1.061-0.344
			c-0.467-0.109-0.993-0.164-1.581-0.164c-0.692,0-1.21,0.156-1.556,0.468c-0.346,0.313-0.519,0.68-0.519,1.103
			c0,0.413,0.131,0.757,0.393,1.032c0.262,0.276,0.59,0.521,0.983,0.738c0.393,0.218,0.82,0.432,1.282,0.643
			c0.46,0.212,0.888,0.458,1.281,0.738c0.393,0.28,0.721,0.617,0.983,1.008c0.262,0.392,0.393,0.878,0.393,1.46
			c0,0.476-0.084,0.905-0.251,1.285c-0.168,0.381-0.414,0.709-0.739,0.985c-0.325,0.275-0.718,0.487-1.18,0.635
			c-0.461,0.147-0.985,0.222-1.572,0.222c-0.787,0-1.437-0.06-1.95-0.182c-0.514-0.122-0.912-0.256-1.195-0.405l0.44-1.175
			c0.241,0.134,0.598,0.265,1.069,0.394c0.472,0.129,1.001,0.193,1.588,0.193c0.346,0,0.671-0.035,0.975-0.103
			c0.304-0.069,0.566-0.18,0.786-0.334c0.22-0.153,0.395-0.347,0.527-0.579C326.36,76.156,326.425,75.881,326.425,75.564z"/>
		<path class="st12" d="M331.678,67.277h1.305v11.112h-1.305V67.277z"/>
		<path class="st12" d="M341.237,72.849h3.695v4.889c-0.168,0.127-0.37,0.244-0.605,0.35c-0.236,0.106-0.488,0.196-0.755,0.27
			c-0.268,0.073-0.545,0.129-0.834,0.166c-0.288,0.037-0.568,0.056-0.841,0.056c-0.703,0-1.347-0.114-1.934-0.341
			c-0.587-0.227-1.096-0.577-1.525-1.048c-0.43-0.471-0.766-1.069-1.007-1.794c-0.241-0.725-0.362-1.58-0.362-2.564
			c0-1.027,0.147-1.905,0.44-2.635s0.676-1.326,1.148-1.786c0.471-0.46,1.001-0.796,1.588-1.008c0.587-0.211,1.174-0.318,1.76-0.318
			c0.629,0,1.148,0.035,1.557,0.103c0.409,0.069,0.755,0.162,1.038,0.278l-0.33,1.175c-0.503-0.254-1.222-0.381-2.154-0.381
			c-0.44,0-0.878,0.077-1.313,0.23c-0.435,0.153-0.825,0.41-1.171,0.77c-0.346,0.36-0.629,0.831-0.849,1.413
			c-0.22,0.582-0.329,1.302-0.329,2.159c0,0.783,0.088,1.46,0.266,2.032c0.178,0.571,0.426,1.045,0.745,1.421
			c0.319,0.376,0.703,0.656,1.152,0.841c0.449,0.185,0.941,0.278,1.474,0.278c0.669,0,1.238-0.132,1.708-0.397v-3.096l-2.563-0.318
			V72.849z"/>
		<path class="st12" d="M351.017,71.119l-0.848-1.604h-0.063l0.157,1.604v7.27h-1.227V67.102h0.692l5.268,7.414l0.817,1.524h0.079
			l-0.173-1.524v-7.239h1.227v11.287h-0.692L351.017,71.119z"/>
	</g>
</g>
</svg>
